# xmcd
#
# Track frame offsets:
#	150
#	19792
#	40317
#	60967
#	84112
#	100752
#	121000
#	137342
#	159305
#	176115
#	190905
#	208325
#	227052
#	256897
#	267505
#	295625
#
# Disc length: 4267 seconds
#
# Revision: 0
# Processed by: cddbd v1.4PL0 Copyright (c) Steve Scherf et al.
# Submitted via: dBpowerAMP V4.0
#
DISCID=cf10a910
DTITLE=Bell Biv DeVoe - Greatest Hits
DYEAR=1900
DGENRE=R&B
TTITLE0=Poison
TTITLE1=Do Me!
TTITLE2=B.B.D. (I Thought It Was Me)
TTITLE3=When Will I See You Smile Again
TTITLE4=She's Dope (aka Dope!)
TTITLE5=Gangsta
TTITLE6=Above The Rim
TTITLE7=Something In Your Eyes
TTITLE8=Show Me The Way
TTITLE9=Nickel
TTITLE10=Hootie Mack
TTITLE11=Ghetto Booty
TTITLE12=Word To The Mutha!
TTITLE13=Ain't Nut'in' Changed (Remix)
TTITLE14=Poison (Remix)
TTITLE15=Do Me (Remix)
EXTD=
EXTT0=
EXTT1=
EXTT2=
EXTT3=
EXTT4=
EXTT5=
EXTT6=
EXTT7=
EXTT8=
EXTT9=
EXTT10=
EXTT11=
EXTT12=
EXTT13=
EXTT14=
EXTT15=
PLAYORDER=
